<?xml version="1.0" encoding="UTF-8"?>
<svg id="ELEMENTS" xmlns="http://www.w3.org/2000/svg" version="1.1" viewBox="0 0 49.5 50">
  <!-- Generator: Adobe Illustrator 29.8.2, SVG Export Plug-In . SVG Version: 2.1.1 Build 3)  -->
  <defs>
    <style>
      .st0 {
        fill: #fff;
      }
    </style>
  </defs>
  <circle cx="24.8" cy="25" r="23.8"/>
  <g>
    <path class="st0" d="M15.2,19.4h4.1v13.2h-4.1s0-13.2,0-13.2ZM17.3,12.9c1.3,0,2.4,1.1,2.4,2.4s-1.1,2.4-2.4,2.4-2.4-1.1-2.4-2.4,1.1-2.4,2.4-2.4"/>
    <path class="st0" d="M21.9,19.4h3.9v1.8h0c.5-1,1.9-2.1,3.9-2.1,4.1,0,4.9,2.7,4.9,6.3v7.2h-4.1v-6.4c0-1.5,0-3.5-2.1-3.5s-2.5,1.7-2.5,3.4v6.5h-4.1v-13.2h.1Z"/>
  </g>
</svg>